<?xml version="1.0" encoding="iso-8859-1"?>
<!-- Generator: Adobe Illustrator 19.0.0, SVG Export Plug-In . SVG Version: 6.00 Build 0)  -->
<svg version="1.1" id="Layer_1" xmlns="http://www.w3.org/2000/svg" xmlns:xlink="http://www.w3.org/1999/xlink" x="0px" y="0px"
	 viewBox="0 0 512 512" style="enable-background:new 0 0 512 512;" xml:space="preserve">
<rect x="170.665" y="96.711" width="34.133" height="204.8"/>
<rect x="147.909" y="314.027" style="fill:#FFE98F;" width="79.644" height="42.667"/>
<rect x="187.163" y="314.027" style="fill:#FFC170;" width="40.385" height="42.667"/>
<g>
	<rect x="147.909" y="261.689" style="fill:#A2001D;" width="79.644" height="56.889"/>
	<rect x="147.909" y="352.711" style="fill:#A2001D;" width="79.644" height="159.289"/>
</g>
<g>
	<rect x="187.174" y="261.689" style="fill:#6C0014;" width="40.383" height="56.889"/>
	<rect x="187.174" y="352.711" style="fill:#6C0014;" width="40.383" height="159.289"/>
</g>
<rect x="284.443" y="257.138" style="fill:#FFE98F;" width="79.644" height="42.667"/>
<rect x="323.696" y="257.138" style="fill:#FFC170;" width="40.385" height="42.667"/>
<g>
	<rect x="284.443" y="204.8" style="fill:#A2001D;" width="79.644" height="56.889"/>
	<rect x="284.443" y="295.822" style="fill:#A2001D;" width="79.644" height="216.178"/>
</g>
<g>
	<rect x="323.707" y="204.8" style="fill:#6C0014;" width="40.383" height="56.889"/>
	<rect x="323.707" y="295.822" style="fill:#6C0014;" width="40.383" height="216.178"/>
</g>
<path style="fill:#A2001D;" d="M187.732,119.467L187.732,119.467c-18.773,0-34.133-15.36-34.133-34.133v-51.2
	C153.598,15.36,168.958,0,187.732,0l0,0c18.773,0,34.133,15.36,34.133,34.133v51.2C221.865,104.107,206.505,119.467,187.732,119.467
	z"/>
<path style="fill:#6C0014;" d="M187.732,0v119.467c18.773,0,34.133-15.36,34.133-34.133v-51.2C221.865,15.36,206.505,0,187.732,0z"
	/>
<g>
</g>
<g>
</g>
<g>
</g>
<g>
</g>
<g>
</g>
<g>
</g>
<g>
</g>
<g>
</g>
<g>
</g>
<g>
</g>
<g>
</g>
<g>
</g>
<g>
</g>
<g>
</g>
<g>
</g>
</svg>
